<svg width="800" height="800" viewBox="0 0 800 800" fill="none" xmlns="http://www.w3.org/2000/svg">
<g clip-path="url(#clip0_456_968)">
<g clip-path="url(#clip1_456_968)">
<rect x="-0.25" width="800" height="800" rx="201" fill="#6100FF"/>
<path d="M570.198 182.855L230.629 220.308L-122.674 482.476H230.629L49.608 807.064H-373.605L570.198 182.855Z" fill="url(#paint0_linear_456_968)"/>
<path d="M922.804 183L583.234 220.453L229.932 482.62H583.234L402.214 807.209H-21L922.804 183Z" fill="url(#paint1_linear_456_968)"/>
<path d="M567.007 182.636H567.318V182.698H567.195V183H567.132V182.698H567.007V182.636ZM567.401 182.767H567.491C567.527 182.767 567.557 182.778 567.581 182.8C567.605 182.821 567.618 182.849 567.618 182.884C567.618 182.918 567.605 182.946 567.581 182.968C567.557 182.989 567.527 183 567.491 183H567.338V182.636H567.401V182.767ZM567.665 183V182.636H567.728V183H567.665ZM567.401 182.941H567.491C567.509 182.941 567.525 182.936 567.537 182.925C567.549 182.914 567.555 182.901 567.555 182.884C567.555 182.867 567.549 182.853 567.536 182.842C567.524 182.831 567.509 182.825 567.491 182.825H567.401V182.941ZM567.967 182.636H568.237V183H568.174V182.698H568.03V182.846C568.03 182.904 568.019 182.945 567.996 182.97C567.972 182.994 567.938 183.004 567.893 183V182.94C567.918 182.944 567.937 182.938 567.949 182.924C567.961 182.909 567.967 182.882 567.967 182.844V182.636ZM568.603 182.954C568.566 182.991 568.521 183.009 568.467 183.009C568.414 183.009 568.368 182.991 568.331 182.954C568.295 182.917 568.276 182.872 568.276 182.818C568.276 182.764 568.295 182.719 568.331 182.682C568.368 182.645 568.414 182.627 568.467 182.627C568.521 182.627 568.566 182.645 568.603 182.682C568.641 182.72 568.659 182.765 568.659 182.818C568.659 182.872 568.641 182.917 568.603 182.954ZM568.467 182.948C568.504 182.948 568.534 182.935 568.559 182.911C568.584 182.886 568.596 182.855 568.596 182.818C568.596 182.781 568.584 182.751 568.559 182.726C568.534 182.701 568.504 182.689 568.467 182.689C568.431 182.689 568.401 182.701 568.376 182.726C568.352 182.751 568.339 182.781 568.339 182.818C568.339 182.855 568.352 182.886 568.376 182.911C568.401 182.935 568.431 182.948 568.467 182.948ZM568.849 182.812L568.988 183H568.913L568.812 182.863L568.709 183H568.635L568.774 182.813L568.643 182.636H568.718L568.812 182.763L568.905 182.636H568.98L568.849 182.812Z" fill="white"/>
</g>
</g>
<defs>
<linearGradient id="paint0_linear_456_968" x1="98.2963" y1="182.855" x2="-293.457" y2="832.641" gradientUnits="userSpaceOnUse">
<stop stop-color="white"/>
<stop offset="1" stop-color="white" stop-opacity="0"/>
</linearGradient>
<linearGradient id="paint1_linear_456_968" x1="450.902" y1="183" x2="59.1487" y2="832.786" gradientUnits="userSpaceOnUse">
<stop stop-color="white"/>
<stop offset="1" stop-color="white" stop-opacity="0"/>
</linearGradient>
<clipPath id="clip0_456_968">
<rect width="800" height="800" fill="white"/>
</clipPath>
<clipPath id="clip1_456_968">
<rect x="-0.25" width="800" height="800" rx="201" fill="white"/>
</clipPath>
</defs>
</svg>
